<svg width="29" height="32" viewBox="0 0 29 32" fill="none" xmlns="http://www.w3.org/2000/svg">
<path d="M14.4133 16.527C10.4397 16.527 7.20667 13.0379 7.20667 8.74959C7.20667 4.46131 10.4397 0.972168 14.4133 0.972168C18.3869 0.972168 21.6199 4.46131 21.6199 8.74959C21.6199 13.0379 18.3869 16.527 14.4133 16.527ZM14.4133 2.91652C11.4325 2.91652 9.00833 5.53265 9.00833 8.74959C9.00833 11.9665 11.4325 14.5827 14.4133 14.5827C17.3942 14.5827 19.8183 11.9665 19.8183 8.74959C19.8183 5.53265 17.3942 2.91652 14.4133 2.91652Z" fill="#45413C"/>
<path d="M14.7736 12.8328H14.053C13.5481 12.8306 13.0572 12.6533 12.6528 12.327C12.2484 12.0007 11.9519 11.5427 11.8072 11.0207C11.7707 10.8973 11.7574 10.7673 11.7681 10.6383C11.7788 10.5093 11.8133 10.3839 11.8695 10.2694C11.9257 10.155 12.0026 10.0539 12.0955 9.97193C12.1885 9.89 12.2957 9.82894 12.4108 9.79234C12.5259 9.75574 12.6467 9.74434 12.7659 9.7588C12.8852 9.77326 13.0006 9.8133 13.1053 9.87656C13.21 9.93981 13.302 10.025 13.3758 10.1272C13.4496 10.2293 13.5037 10.3463 13.535 10.4714C13.6026 10.7173 13.8161 10.8894 14.053 10.8894H14.7736C14.9171 10.8894 15.0547 10.8279 15.1561 10.7184C15.2576 10.6089 15.3146 10.4605 15.3146 10.3056C15.3146 10.1508 15.2576 10.0023 15.1561 9.89282C15.0547 9.78334 14.9171 9.72183 14.7736 9.72183H14.053C12.7612 9.72183 11.7108 8.5873 11.7108 7.19417C11.7108 5.80104 12.7612 4.6665 14.053 4.6665H14.7736C15.7835 4.6665 16.6753 5.36064 16.9951 6.39504C17.0343 6.51662 17.0508 6.6454 17.0436 6.77392C17.0364 6.90243 17.0055 7.02812 16.9529 7.14367C16.9003 7.25923 16.827 7.36236 16.7371 7.44707C16.6473 7.53178 16.5427 7.59639 16.4296 7.63714C16.3164 7.67789 16.1969 7.69398 16.0779 7.68447C15.9589 7.67496 15.8429 7.64004 15.7365 7.58173C15.6301 7.52343 15.5355 7.4429 15.4582 7.34483C15.3809 7.24675 15.3225 7.13309 15.2862 7.01042C15.2507 6.89402 15.182 6.7927 15.09 6.72095C14.9979 6.64919 14.8872 6.61066 14.7736 6.61086H14.053C13.9096 6.61086 13.7721 6.67232 13.6708 6.78171C13.5694 6.8911 13.5125 7.03946 13.5125 7.19417C13.5125 7.34887 13.5694 7.49724 13.6708 7.60663C13.7721 7.71602 13.9096 7.77747 14.053 7.77747H14.7736C16.0654 7.77747 17.1158 8.91201 17.1158 10.3051C17.1158 11.6983 16.0654 12.8328 14.7736 12.8328Z" fill="#45413C"/>
<path d="M14.4133 5.83308C14.1692 5.83308 13.944 5.72614 13.7737 5.55115C13.7377 5.50254 13.6927 5.45393 13.6656 5.3956C13.6299 5.34601 13.6025 5.29009 13.5846 5.23033C13.5587 5.17511 13.5402 5.11619 13.5296 5.05534C13.5215 4.98729 13.5125 4.92896 13.5125 4.8609C13.5125 4.60814 13.6107 4.35537 13.7737 4.17066C14.1071 3.81095 14.7106 3.81095 15.0529 4.17066C15.2151 4.35537 15.3142 4.60814 15.3142 4.8609C15.3142 4.92896 15.3052 4.98729 15.2952 5.05534C15.2859 5.11637 15.2676 5.17543 15.2412 5.23033C15.2229 5.28992 15.1955 5.34579 15.1601 5.3956C15.1241 5.45393 15.0881 5.50254 15.052 5.55115C14.8818 5.72614 14.6475 5.83308 14.4133 5.83308ZM14.4133 13.6105C14.1692 13.6105 13.944 13.5036 13.7737 13.3286C13.7377 13.28 13.6927 13.2314 13.6656 13.173C13.6299 13.1234 13.6025 13.0675 13.5846 13.0078C13.5587 12.9525 13.5402 12.8936 13.5296 12.8328C13.5215 12.7647 13.5125 12.7064 13.5125 12.6383C13.5125 12.3856 13.6107 12.1328 13.7737 11.9481C14.1071 11.5884 14.7106 11.5884 15.0529 11.9481C15.2151 12.1328 15.3142 12.3856 15.3142 12.6383C15.3142 12.7064 15.3052 12.7647 15.2952 12.8328C15.2859 12.8938 15.2676 12.9529 15.2412 13.0078C15.2229 13.0673 15.1955 13.1232 15.1601 13.173C15.1241 13.2314 15.0881 13.28 15.052 13.3286C14.8818 13.5036 14.6475 13.6105 14.4133 13.6105ZM16.215 30.1375H1.80171C1.56279 30.1375 1.33366 30.0351 1.16473 29.8528C0.995788 29.6705 0.900879 29.4232 0.900879 29.1654V20.4158C0.900879 20.1581 0.995466 19.9102 1.16482 19.7284C1.37562 19.5 3.29078 17.4992 5.40503 17.4992C7.15624 17.4992 9.41553 18.9273 10.1749 19.4436H14.4133C14.8076 19.4442 15.197 19.5378 15.5543 19.7179C15.9116 19.8979 16.228 20.1601 16.4816 20.486C16.7352 20.8118 16.9197 21.1936 17.0222 21.6045C17.1248 22.0153 17.1429 22.4454 17.0753 22.8647L24.1837 19.6681C24.5943 19.483 25.041 19.4104 25.4839 19.4567C25.9268 19.503 26.3522 19.6668 26.7223 19.9336C27.0929 20.1994 27.3967 20.5602 27.6067 20.9836C27.8167 21.407 27.9263 21.8799 27.9258 22.3601C27.9258 22.53 27.8846 22.697 27.8062 22.8444C27.7278 22.9918 27.615 23.1144 27.479 23.2001L16.669 30.0053C16.5311 30.0919 16.3745 30.1375 16.215 30.1375ZM2.70254 28.1932H15.9709L26.0061 21.876C25.9361 21.7458 25.8394 21.6347 25.7233 21.5513C25.6004 21.4612 25.4586 21.4059 25.3108 21.3905C25.163 21.375 25.014 21.3999 24.8774 21.4628L16.5627 25.2018C16.4525 25.2512 16.3343 25.2766 16.215 25.2766H9.00835C8.76944 25.2766 8.54031 25.1742 8.37137 24.9919C8.20243 24.8096 8.10752 24.5623 8.10752 24.3045C8.10752 24.0466 8.20243 23.7993 8.37137 23.617C8.54031 23.4347 8.76944 23.3323 9.00835 23.3323H14.4133C14.6453 23.3211 14.8643 23.2138 15.0247 23.0327C15.1852 22.8516 15.2748 22.6107 15.2748 22.3601C15.2748 22.1095 15.1852 21.8686 15.0247 21.6875C14.8643 21.5064 14.6453 21.3991 14.4133 21.3879H9.90918C9.73172 21.3879 9.55696 21.3306 9.40922 21.2256C8.72009 20.7298 6.65448 19.4436 5.40503 19.4436C4.42313 19.4436 3.29078 20.2991 2.70254 20.8425V28.1932Z" fill="#45413C"/>
</svg>
