<svg width="25" height="24" viewBox="0 0 25 24" fill="none" xmlns="http://www.w3.org/2000/svg">
<path d="M0 2.66667V21.3333C0 22.8067 1.24306 24 2.77778 24H22.2222C23.7569 24 25 22.8067 25 21.3333V2.66667C25 1.19333 23.7569 0 22.2222 0H2.77778C1.24306 0 0 1.19333 0 2.66667ZM16.6667 8C16.6667 10.2133 14.7986 12 12.5 12C10.2014 12 8.33333 10.2133 8.33333 8C8.33333 5.79333 10.2014 4 12.5 4C14.7986 4 16.6667 5.79333 16.6667 8ZM4.16667 18.6667C4.16667 16 9.72222 14.5333 12.5 14.5333C15.2778 14.5333 20.8333 16 20.8333 18.6667V20H4.16667V18.6667Z" fill="#676B73"/>
</svg>
